<svg width="200" height="100" viewBox="0 0 200 100" fill="none" xmlns="http://www.w3.org/2000/svg">
<g clip-path="url(#clip0_293_9)">
<path d="M70.4306 39.0063V48.0432H62.552V39.0063H59.125V60.9906H62.552V51.3456H70.4306V60.9906H73.8562V39.0063H70.4306Z" fill="#DEA74B"/>
<path d="M99.7225 44.4226L105.23 48.4655L99.7225 52.7462V44.4226ZM96.3228 38.4777L96.2969 61.0166H99.7225V56.4982L102.437 54.4637L108.709 61.5714L111.265 59.3784L105.204 52.5085L110.817 48.4915L97.1131 38.4763H96.3228V38.4777Z" fill="#DEA74B"/>
<path d="M173.938 44.6685L181.388 54.8422L175.406 58.9138L177.382 61.5727L186.077 55.14L178.626 44.9937L184.446 41.0314L182.443 38.3984L173.938 44.6685Z" fill="#DEA74B"/>
<path d="M88.131 38.3984L76.0352 49.8674L88.345 61.5263L88.3681 61.5727L88.3818 61.5604L88.394 61.5727L88.4594 61.488L93.5174 56.7564L91.1301 54.5922L88.6011 56.8889L82.2282 51.399H89.8179V48.2278H82.2541L88.4104 43.0358L90.9639 45.353L93.2803 43.2147L88.131 38.3984Z" fill="#DEA74B"/>
<path d="M148.776 57.7155H157.498V60.9919H145.351V39.0063H148.776V57.7155Z" fill="#DEA74B"/>
<path d="M138.726 39.0063H142.152V60.9919H128.317V39.0063H131.743V57.7155H138.726V39.0063Z" fill="#DEA74B"/>
<path d="M154.497 49.8948L166.806 61.5523L166.83 61.6002L166.844 61.5879L166.857 61.6002L166.921 61.5154L171.979 56.7839L169.578 54.6783L167.088 56.9383L160.69 51.4279H168.28V48.2566H160.717L166.743 43.1725L169.328 45.5212L171.742 43.2422L166.593 38.4272L154.497 49.8948Z" fill="#DEA74B"/>
<path d="M111.436 49.8671L123.662 61.5724L126.167 58.8247L116.259 49.8398L126.062 41.1718L123.531 38.4514L111.436 49.8671Z" fill="#DEA74B"/>
<path d="M32 68C41.9411 68 50 59.9411 50 50C50 40.0589 41.9411 32 32 32C22.0589 32 14 40.0589 14 50C14 59.9411 22.0589 68 32 68Z" fill="black"/>
<path d="M31.4358 43.8623C31.9195 43.4374 32.3922 43.5044 32.3922 43.5044C32.3922 43.5044 31.873 42.9688 30.1446 43.3022C29.0871 43.5057 28.8822 43.2311 28.7646 42.9059C30.6734 42.2719 33.4334 41.9864 37.3903 42.675C37.4217 42.6805 37.4531 42.6846 37.4859 42.6887C37.5324 42.9401 37.6048 43.3431 37.6936 43.8419C36.7932 43.7503 33.9553 43.5139 31.4358 43.861V43.8623Z" fill="#DEA74B"/>
<path d="M38.5493 50.5804C38.3922 50.6842 38.1462 50.8837 37.7336 50.7772C37.2431 50.6501 36.8455 50.4697 36.8455 50.4697C36.5463 50.5859 36.3249 50.7594 36.0394 50.605C35.8153 50.4848 35.7825 50.1883 35.7907 49.9519C35.8863 49.8303 35.956 49.7415 35.9779 49.7114C36.0804 49.5707 36.6146 49.7019 36.6146 49.7019C36.3386 49.2045 35.7852 49.337 35.7032 49.4668C35.6213 49.5966 34.7673 51.2349 34.7673 51.2349C34.7673 51.2349 35.1362 50.7744 35.4682 50.3577C35.5625 50.538 35.7511 50.8564 36.0038 51.045C35.6677 51.1433 35.3316 51.3346 35.1226 51.7008C34.5706 52.6641 33.5595 52.6654 33.5513 52.6654C33.5513 52.6654 33.5909 51.8361 33.0703 51.269C32.5484 50.7034 32.4104 49.8002 32.4104 49.8002C32.133 50.1828 32.2984 51.0122 32.2984 51.0122C32.2984 51.0122 31.484 50.0106 31.1916 48.3724C31.1124 47.9256 31.1616 47.5881 31.275 47.3326C31.3351 47.4392 31.3706 47.5444 31.3583 47.6346C31.3201 47.9092 31.305 48.2932 31.4717 48.602C31.6616 48.9531 32.0552 49.2059 32.3899 49.0419C32.8941 48.796 32.5812 48.1634 32.5812 48.1634C32.5812 48.1634 32.5224 48.8985 32.0456 48.5733C31.6029 48.2713 33.2234 47.058 32.3298 46.562H32.3325C31.1179 45.924 30.9471 45.0481 30.9307 44.6915C31.0482 44.6697 31.1657 44.6505 31.2859 44.6314C31.3542 44.7284 31.3993 44.8254 31.3884 44.9088C31.3624 45.096 31.3529 45.3556 31.4663 45.566C31.5947 45.8051 31.8625 45.9759 32.0907 45.8652C32.4336 45.6985 32.2205 45.2681 32.2205 45.2681C32.2205 45.2681 32.1809 45.7668 31.857 45.5469C31.6111 45.3788 32.1262 44.9006 32.1057 44.5289C32.2615 44.5139 32.4172 44.5002 32.573 44.4879C32.5935 44.5371 32.6058 44.585 32.5989 44.6273C32.5744 44.8036 32.5648 45.0495 32.6714 45.2463C32.793 45.4717 33.0457 45.6329 33.2603 45.5277C33.5827 45.3706 33.3832 44.9648 33.3832 44.9648C33.3832 44.9648 33.345 45.4362 33.0403 45.2271C32.8463 45.0946 33.1537 44.7571 33.2493 44.447C33.4474 44.4388 33.6442 44.4319 33.8382 44.4278C33.856 44.4688 33.8642 44.5098 33.8587 44.5453C33.8368 44.7011 33.8286 44.917 33.9229 45.0905C34.0295 45.2886 34.2522 45.4307 34.4408 45.3392C34.725 45.2012 34.5487 44.8446 34.5487 44.8446C34.5487 44.8446 34.5159 45.2586 34.2467 45.0755C34.0828 44.9634 34.3246 44.6874 34.4189 44.4224C34.5993 44.4224 34.7769 44.4237 34.9504 44.4265C34.9504 44.4278 34.9504 44.4292 34.9504 44.4306C34.9285 44.5863 34.9203 44.8022 35.0146 44.9757C35.1212 45.1738 35.3439 45.3159 35.5325 45.2244C35.8167 45.0864 35.6404 44.7298 35.6404 44.7298C35.6404 44.7298 35.6076 45.1438 35.3384 44.9607C35.2018 44.8678 35.3466 44.6601 35.4546 44.4401C35.6691 44.447 35.8754 44.4565 36.0708 44.4661C36.0489 44.6218 36.0407 44.8377 36.135 45.0113C36.2416 45.2094 36.4643 45.3515 36.6528 45.2599C36.937 45.1219 36.7608 44.7653 36.7608 44.7653C36.7608 44.7653 36.728 45.1793 36.4588 44.9962C36.3263 44.906 36.4588 44.7079 36.564 44.4961C36.7253 44.5071 36.8756 44.518 37.0122 44.5276C37.0122 44.5344 37.0122 44.5412 37.0122 44.5481C36.9903 44.7038 36.9821 44.9197 37.0764 45.0932C37.183 45.2913 37.4057 45.4334 37.5942 45.3419C37.8784 45.2039 37.7022 44.8473 37.7022 44.8473C37.7022 44.8473 37.6694 45.2613 37.4002 45.0782C37.2663 44.9867 37.403 44.7858 37.5082 44.5727C37.653 44.5863 37.7609 44.5973 37.8238 44.6041C37.8894 44.9839 37.9591 45.3925 38.0287 45.8106C37.8293 46.1467 36.84 46.1685 36.84 46.1685C36.84 46.1685 35.7743 45.3665 35.2319 45.7422C34.6908 46.118 33.0512 46.4035 33.0512 46.4035C34.3642 46.6522 35.1635 46.1043 35.4218 46.0483C35.68 45.9923 36.3208 46.9145 36.3208 46.9145C36.3208 46.9145 35.7374 46.6303 35.4245 46.5197C35.1116 46.4104 33.9871 46.9856 33.9871 46.9856C35.5065 47.2425 36.12 48.2085 36.12 48.2085C36.12 48.2085 36.0107 47.2766 36.3167 47.2138C36.6228 47.1496 36.9644 48.0226 36.9644 48.0226C37.1256 47.1277 36.9685 46.7738 37.7145 46.476C37.8552 46.4199 37.9891 46.3065 38.0848 46.1453C38.4277 48.2399 38.7406 50.4615 38.5507 50.5859L38.5493 50.5804Z" fill="#DEA74B"/>
<path d="M37.2751 41.702C37.3284 41.881 37.3693 42.0422 37.4008 42.1789C36.6589 42.0053 34.4031 41.702 31.9204 41.8605C28.4254 42.0832 27.0358 43.0711 27.0358 43.0711C27.0358 43.0711 29.2534 43.9742 29.8819 46.2587C28.0729 43.4755 24.8347 42.8333 22.8057 42.6584L22.8275 42.6489C22.8275 42.6489 24.3004 42.3005 26.7639 42.8019C26.7639 42.8019 28.9336 41.7088 32.247 41.4957C34.0833 41.3768 36.3979 41.5066 37.2751 41.7034V41.702Z" fill="#DEA74B"/>
<path d="M38.6081 42.4973C38.2761 42.6585 37.6653 42.3074 37.7159 41.9139C37.9427 40.1581 36.4671 41.4111 36.2881 41.0832C36.3878 41.0271 36.2635 40.2893 36.4042 40.2388C39.3008 38.964 37.8266 41.7308 38.2665 42.0327C38.7393 42.3566 38.798 41.6269 38.798 41.6269C38.798 41.6269 39.1082 42.2527 38.6081 42.4987V42.4973Z" fill="#DEA74B"/>
<path d="M38.6067 60.5396C38.0123 57.628 36.9616 55.1057 37.448 53.2502C37.4918 53.0822 37.6352 52.9688 37.7596 52.6299C37.8839 52.2897 37.5792 51.9837 37.4098 51.8019C37.2417 51.6202 37.4207 51.2595 37.4221 51.2554C35.4559 51.2472 35.9478 52.8677 33.2808 53.7189C35.8686 53.2789 36.0735 52.5193 36.7826 51.9727C36.9903 51.8129 37.1242 51.9358 37.3756 52.3389C37.627 52.742 37.0395 53.0426 36.9261 53.2776C36.3167 54.551 37.0709 58.9219 37.0709 58.9219C35.8235 58.5502 34.9846 58.6363 34.0801 58.43C31.9704 57.9504 32.271 56.0608 32.271 56.0608C31.898 56.6688 31.6166 58.8249 31.6166 58.8249C30.1928 58.1171 28.847 56.5622 28.7637 56.4652C30.0111 58.1349 31.9499 59.519 32.3079 59.6474C31.9896 59.0817 32.1959 58.4355 32.1959 58.4355C32.7916 59.5681 33.9147 60.3155 35.5639 60.3784C37.0668 60.4358 38.604 60.5396 38.604 60.5396H38.6067Z" fill="#DEA74B"/>
<path d="M26.0029 52.4617C26.0029 52.4617 28.0647 52.9659 29.4953 54.0276C29.4953 54.0276 29.1168 53.1026 28.9282 52.9031C28.9282 52.9031 30.5952 53.4879 31.9779 54.9157C31.9779 54.9157 30.2754 52.612 28.0169 52.0327C28.0169 52.0327 28.2546 52.6243 28.4473 52.9878C28.4473 52.9878 27.9663 52.4658 26.0043 52.4617H26.0029Z" fill="#DEA74B"/>
<path d="M25.9321 43.8621C25.8214 43.9727 24.4688 44.1599 24.9101 45.999C25.3514 47.8394 25.6998 50.1253 24.8213 50.9984C24.8213 50.9984 26.4295 50.0488 25.5864 46.4581C25.0645 44.231 25.9307 43.8621 25.9307 43.8621H25.9321Z" fill="#DEA74B"/>
<path d="M26.7791 42.243C33.0833 39.7823 37.1686 41.3836 37.1686 41.3836C37.1686 41.3836 36.3939 38.8532 34.0466 37.9418C33.0177 37.5429 31.1609 37.8325 31.2073 37.8325C31.2538 37.8325 32.8128 38.1413 31.717 38.3736C30.6212 38.6059 29.0608 38.4515 28.2738 38.8832C27.4868 39.315 28.8914 39.0376 27.7642 39.5623C26.637 40.087 25.6833 40.1949 25.6354 40.6431C25.5876 41.0912 25.88 41.0297 25.7106 41.415C25.5412 41.8003 25.2788 42.0381 25.1859 42.0818C25.093 42.1255 25.9128 42.5819 26.7791 42.2444V42.243Z" fill="#DEA74B"/>
<path d="M28.2072 67.593C18.5063 65.5025 12.3155 55.9081 14.4059 46.2072C16.4978 36.5063 26.0908 30.3155 35.7917 32.4059C45.4926 34.4964 51.6835 44.0908 49.593 53.7917C47.5025 63.4926 37.9081 69.6835 28.2072 67.593ZM35.6687 32.9784C26.2834 30.9549 17.002 36.9449 14.9784 46.3315C12.9549 55.7169 18.9449 64.9983 28.3302 67.0219C37.7155 69.0454 46.997 63.0554 49.0205 53.6701C51.044 44.2848 45.054 35.0033 35.6687 32.9798V32.9784Z" fill="#DEA74B"/>
<path d="M28.9627 64.0944C21.191 62.4192 16.2313 54.7336 17.9064 46.962C19.5815 39.1903 27.2671 34.2305 35.0388 35.9057C42.8104 37.5808 47.7702 45.2664 46.0951 53.038C44.42 60.8097 36.7344 65.7695 28.9627 64.0944ZM34.9158 36.4781C27.4598 34.8713 20.0857 39.6289 18.4789 47.0863C16.8721 54.5424 21.6296 61.9164 29.087 63.5232C36.5431 65.13 43.9172 60.3725 45.524 52.9151C47.1308 45.459 42.3732 38.0849 34.9158 36.4781Z" fill="#DEA74B"/>
<path d="M26.5918 65.6986L27.4676 64.1874C28.133 64.4129 28.8175 64.5864 29.5021 64.7053L29.3313 65.7587C29.0471 65.7081 28.7315 65.6917 28.1084 65.4677L28.256 65.0988C28.4978 65.1944 28.8066 65.2641 29.0034 65.3023L29.0485 65.0236C28.5798 64.9293 28.1112 64.8091 27.6507 64.6643L27.178 65.48C28.0975 65.7819 29.0826 65.9937 30.1101 66.1085C30.0937 65.6289 30.1046 64.5153 30.1033 64.0508H30.5009C30.5009 64.3527 30.4722 65.9732 30.4585 66.5389C29.1291 66.4227 27.7696 66.1221 26.5918 65.6999V65.6986Z" fill="#DEA74B"/>
<path d="M37.4042 34.3029L36.5284 35.8141C35.863 35.5887 35.1784 35.4151 34.4939 35.2963L34.6647 34.2428C34.9489 34.2934 35.2645 34.3098 35.8876 34.5338L35.74 34.9028C35.4982 34.8071 35.1894 34.7374 34.9926 34.6992L34.9475 34.9779C35.4162 35.0722 35.8848 35.1924 36.3453 35.3372L36.818 34.5216C35.8985 34.2196 34.9134 34.0078 33.8859 33.893C33.9023 34.3726 33.8914 35.4862 33.8927 35.9507H33.4951C33.4951 35.6488 33.5238 34.0283 33.5375 33.4626C34.8669 33.5788 36.2264 33.8794 37.4042 34.3016V34.3029Z" fill="#DEA74B"/>
<path d="M16.3022 44.5928L17.8134 45.4686C17.5879 46.134 17.4144 46.8185 17.2955 47.5031L16.2421 47.3323C16.2926 47.0481 16.309 46.7324 16.5331 46.1094L16.902 46.257C16.8064 46.4988 16.7367 46.8076 16.6984 47.0043L16.9772 47.0494C17.0714 46.5808 17.1917 46.1121 17.3365 45.6517L16.5208 45.1789C16.2189 46.0985 16.0071 47.0836 15.8923 48.1111C16.3719 48.0947 17.4854 48.1056 17.95 48.1042V48.5018C17.648 48.5018 16.0276 48.4731 15.4619 48.4595C15.5781 47.13 15.8786 45.7705 16.3008 44.5928H16.3022Z" fill="#DEA74B"/>
<path d="M47.6966 55.4074L46.1855 54.5315C46.4109 53.8661 46.5844 53.1816 46.7033 52.4971L47.7567 52.6679C47.7062 52.9521 47.6898 53.2677 47.4657 53.8907L47.0968 53.7432C47.1924 53.5013 47.2621 53.1925 47.3004 52.9958L47.0217 52.9507C46.9274 53.4193 46.8071 53.888 46.6623 54.3485L47.478 54.8212C47.78 53.9017 47.9917 52.9165 48.1065 51.8891C47.6269 51.9055 46.5134 51.8945 46.0488 51.8959V51.4983C46.3508 51.4983 47.9713 51.527 48.5369 51.5406C48.4208 52.8701 48.1202 54.2296 47.698 55.4074H47.6966Z" fill="#DEA74B"/>
<path d="M17.0756 57.2759L18.7644 56.8264C19.0759 57.4563 19.4366 58.0629 19.8369 58.6313L18.9707 59.2557C18.8054 59.0194 18.5936 58.7857 18.3121 58.1859L18.6769 58.0288C18.7794 58.2679 18.9502 58.5357 19.0622 58.701L19.2918 58.5357C19.0267 58.1381 18.7808 57.7214 18.5567 57.2923L17.6453 57.5342C18.0826 58.3991 18.6291 59.2434 19.274 60.0523C19.6019 59.7012 20.3971 58.9224 20.7237 58.5931L21.0051 58.8732C20.792 59.0877 19.6252 60.2135 19.2153 60.6029C18.3572 59.5809 17.6085 58.4059 17.0742 57.2746L17.0756 57.2759Z" fill="#DEA74B"/>
<path d="M46.9237 42.7235L45.2349 43.173C44.9234 42.5431 44.5627 41.9365 44.1624 41.3681L45.0286 40.7437C45.1939 40.9801 45.4057 41.2137 45.6872 41.8135L45.3224 41.9706C45.2199 41.7315 45.0491 41.4637 44.9371 41.2984L44.7075 41.4637C44.9726 41.8613 45.2185 42.2781 45.4426 42.7071L46.3539 42.4653C45.9167 41.6004 45.3702 40.756 44.7253 39.9471C44.3974 40.2983 43.6022 41.0771 43.2756 41.4064L42.9941 41.1263C43.2073 40.9117 44.3741 39.7859 44.784 39.3965C45.6421 40.4185 46.3908 41.5935 46.9251 42.7249L46.9237 42.7235Z" fill="#DEA74B"/>
<path d="M24.7245 35.0766L25.174 36.7653C24.5441 37.0769 23.9375 37.4376 23.3691 37.8379L22.7447 36.9717C22.981 36.8063 23.2147 36.5946 23.8145 36.3131L23.9716 36.6779C23.7325 36.7804 23.4647 36.9512 23.2994 37.0632L23.4647 37.2927C23.8623 37.0277 24.279 36.7817 24.7081 36.5577L24.4662 35.6463C23.6013 36.0835 22.757 36.6301 21.9481 37.275C22.2992 37.6029 23.078 38.3981 23.4073 38.7247L23.1272 39.0061C22.9127 38.793 21.7869 37.6261 21.3975 37.2162C22.4195 36.3582 23.5945 35.6094 24.7258 35.0752L24.7245 35.0766Z" fill="#DEA74B"/>
<path d="M39.2767 64.9242L38.8271 63.2354C39.457 62.9239 40.0637 62.5632 40.6321 62.1628L41.2565 63.0291C41.0201 63.1944 40.7865 63.4062 40.1866 63.6877L40.0295 63.3229C40.2686 63.2204 40.5364 63.0496 40.7017 62.9375L40.5364 62.708C40.1388 62.9731 39.7221 63.219 39.2931 63.4431L39.5349 64.3544C40.3998 63.9172 41.2442 63.3707 42.053 62.7258C41.7019 62.3978 40.9231 61.6026 40.5938 61.2761L40.8739 60.9946C41.0884 61.2078 42.2143 62.3746 42.6037 62.7845C41.5817 63.6426 40.4066 64.3913 39.2753 64.9256L39.2767 64.9242Z" fill="#DEA74B"/>
<path d="M20.976 62.4178L22.3655 61.3589C22.8929 61.8234 23.4586 62.2456 24.0461 62.6186L23.4832 63.5259C23.24 63.3701 22.9558 63.2349 22.4653 62.7881L22.7426 62.5039C22.9285 62.6856 23.1881 62.8687 23.3548 62.9794L23.5037 62.7402C23.1074 62.4738 22.7208 62.1828 22.3505 61.8713L21.6004 62.4424C22.3341 63.075 23.1607 63.6475 24.0666 64.1489C24.2347 63.6994 24.6733 62.676 24.8495 62.247L25.2171 62.3987C25.1023 62.6788 24.4519 64.164 24.2224 64.6804C23.0391 64.0628 21.8996 63.2622 20.9746 62.4205L20.976 62.4178Z" fill="#DEA74B"/>
<path d="M43.0174 37.5822L41.6279 38.6411C41.1005 38.1766 40.5348 37.7544 39.9473 37.3814L40.5102 36.4741C40.7534 36.6299 41.0376 36.7652 41.5282 37.2119L41.2508 37.4961C41.065 37.3144 40.8054 37.1313 40.6387 37.0207L40.4897 37.2598C40.886 37.5262 41.2726 37.8172 41.6429 38.1287L42.393 37.5576C41.6593 36.925 40.8327 36.3525 39.9268 35.8511C39.7588 36.3006 39.3202 37.324 39.1439 37.753L38.7764 37.6013C38.8911 37.3212 39.5415 35.8361 39.7711 35.3196C40.9543 35.9372 42.0938 36.7378 43.0188 37.5795L43.0174 37.5822Z" fill="#DEA74B"/>
<path d="M19.583 38.9796L20.6419 40.3692C20.1773 40.8966 19.7551 41.4623 19.3821 42.0498L18.4749 41.4868C18.6306 41.2436 18.7659 40.9594 19.2127 40.4689L19.4969 40.7463C19.3152 40.9321 19.1321 41.1917 19.0214 41.3584L19.2605 41.5073C19.5269 41.1111 19.818 40.7244 20.1295 40.3542L19.5584 39.604C18.9257 40.3378 18.3533 41.1644 17.8518 42.0703C18.3013 42.2383 19.3247 42.6769 19.7537 42.8532L19.6021 43.2207C19.322 43.1059 17.8368 42.4556 17.3203 42.226C17.9379 41.0428 18.7386 39.9033 19.5802 38.9783L19.583 38.9796Z" fill="#DEA74B"/>
<path d="M44.4202 61.0209L43.3613 59.6313C43.8259 59.1039 44.2481 58.5382 44.6211 57.9507L45.5283 58.5137C45.3726 58.7569 45.2373 59.0411 44.7905 59.5316L44.5063 59.2542C44.688 59.0684 44.8711 58.8088 44.9818 58.6421L44.7427 58.4932C44.4763 58.8894 44.1852 59.2761 43.8737 59.6463L44.4448 60.3965C45.0774 59.6627 45.6499 58.8361 46.1514 57.9302C45.7018 57.7622 44.6785 57.3236 44.2494 57.1473L44.4011 56.7798C44.6812 56.8946 46.1664 57.5449 46.6829 57.7745C46.0653 58.9577 45.2646 60.0972 44.423 61.0222L44.4202 61.0209Z" fill="#DEA74B"/>
<path d="M15.4258 50.9883L17.1569 51.2219C17.202 51.9228 17.3031 52.6224 17.4548 53.3001L16.4164 53.5433C16.3549 53.2618 16.2497 52.964 16.2183 52.3013L16.6159 52.2959C16.6186 52.5555 16.6732 52.8683 16.7129 53.0651L16.9875 53.0009C16.8959 52.5322 16.8276 52.0527 16.7866 51.5717L15.8521 51.446C15.9231 52.412 16.1035 53.4012 16.389 54.3973C16.8263 54.1992 17.8592 53.7852 18.2882 53.6062L18.4413 53.9723C18.1612 54.0885 16.6514 54.6801 16.124 54.8823C15.725 53.6089 15.4845 52.2371 15.4258 50.9883Z" fill="#DEA74B"/>
<path d="M48.5731 49.0124L46.842 48.7788C46.7969 48.0779 46.6958 47.3783 46.5441 46.7006L47.5825 46.4574C47.644 46.7389 47.7492 47.0367 47.7806 47.6994L47.383 47.7049C47.3803 47.4453 47.3256 47.1324 47.286 46.9356L47.0114 46.9998C47.1029 47.4685 47.1712 47.9481 47.2122 48.429L48.1468 48.5547C48.0758 47.5887 47.8954 46.5995 47.6098 45.6035C47.1726 45.8016 46.1397 46.2156 45.7106 46.3946L45.5576 46.0284C45.8377 45.9122 47.3475 45.3206 47.8749 45.1184C48.2739 46.3918 48.5143 47.7636 48.5731 49.0124Z" fill="#DEA74B"/>
<path d="M31.0142 33.427L30.7805 35.1581C30.0796 35.2032 29.38 35.3043 28.7023 35.456L28.4591 34.4176C28.7406 34.3561 29.0384 34.2509 29.7011 34.2195L29.7066 34.6171C29.447 34.6198 29.1341 34.6745 28.9373 34.7141L29.0015 34.9887C29.4702 34.8972 29.9498 34.8289 30.4307 34.7879L30.5564 33.8533C29.5904 33.9243 28.6012 34.1047 27.6052 34.3903C27.8033 34.8275 28.2173 35.8604 28.3963 36.2895L28.0301 36.4425C27.914 36.1624 27.3223 34.6526 27.1201 34.1252C28.3935 33.7262 29.7653 33.4858 31.0142 33.427Z" fill="#DEA74B"/>
<path d="M32.9902 66.5741L33.2239 64.8429C33.9248 64.7979 34.6244 64.6967 35.3021 64.5451L35.5453 65.5835C35.2638 65.645 34.9659 65.7502 34.3033 65.7816L34.2978 65.384C34.5574 65.3813 34.8703 65.3266 35.0671 65.287L35.0028 65.0124C34.5342 65.1039 34.0546 65.1722 33.5737 65.2132L33.448 66.1478C34.4139 66.0767 35.4032 65.8964 36.3992 65.6108C36.2011 65.1736 35.7871 64.1406 35.6081 63.7116L35.9743 63.5586C36.0904 63.8387 36.6821 65.3485 36.8843 65.8759C35.6109 66.2749 34.2391 66.5153 32.9902 66.5741Z" fill="#DEA74B"/>
</g>
<defs>
<clipPath id="clip0_293_9">
<rect width="172" height="36" fill="white" transform="translate(14 32)"/>
</clipPath>
</defs>
</svg>
